<?xml version="1.0" encoding="UTF-8" standalone="no"?>
<!DOCTYPE svg PUBLIC "-//W3C//DTD SVG 1.1//EN"
 "http://www.w3.org/Graphics/SVG/1.1/DTD/svg11.dtd">
<!-- Generated by graphviz version 2.40.1 (20161225.0304)
 -->
<!-- Title: models_diagram Pages: 1 -->
<svg width="367pt" height="226pt"
 viewBox="0.00 0.00 367.00 226.00" xmlns="http://www.w3.org/2000/svg" xmlns:xlink="http://www.w3.org/1999/xlink">
<g id="graph0" class="graph" transform="scale(1 1) rotate(0) translate(36 190)">
<title>models_diagram</title>
<polygon fill="#ffffff" stroke="transparent" points="-36,36 -36,-190 331,-190 331,36 -36,36"/>
<!-- Todo -->
<g id="node1" class="node">
<title>Todo</title>
<polygon fill="#add8e6" stroke="transparent" points=".5,-110 .5,-132 83.5,-132 83.5,-110 .5,-110"/>
<polygon fill="none" stroke="#000000" points=".5,-110 .5,-132 83.5,-132 83.5,-110 .5,-110"/>
<text text-anchor="start" x="31.4455" y="-118" font-family="Times,serif" font-size="10.00" fill="#000000">Todo</text>
<polygon fill="none" stroke="#000000" points=".5,-88 .5,-110 83.5,-110 83.5,-88 .5,-88"/>
<text text-anchor="start" x="5.5" y="-96" font-family="Times,serif" font-size="10.00" fill="#000000">id: NUMBER</text>
<polygon fill="none" stroke="#000000" points=".5,-66 .5,-88 83.5,-88 83.5,-66 .5,-66"/>
<text text-anchor="start" x="5.5" y="-74" font-family="Times,serif" font-size="10.00" fill="#000000">title: STRING</text>
<polygon fill="none" stroke="#000000" points=".5,-44 .5,-66 83.5,-66 83.5,-44 .5,-44"/>
<text text-anchor="start" x="5.5" y="-52" font-family="Times,serif" font-size="10.00" fill="#000000">createdAt: DATE</text>
<polygon fill="none" stroke="#000000" points=".5,-22 .5,-44 83.5,-44 83.5,-22 .5,-22"/>
<text text-anchor="start" x="5.205" y="-30" font-family="Times,serif" font-size="10.00" fill="#000000">updatedAt: DATE</text>
</g>
<!-- TodoItem -->
<g id="node2" class="node">
<title>TodoItem</title>
<polygon fill="#add8e6" stroke="transparent" points="196.5,-132 196.5,-154 295.5,-154 295.5,-132 196.5,-132"/>
<polygon fill="none" stroke="#000000" points="196.5,-132 196.5,-154 295.5,-154 295.5,-132 196.5,-132"/>
<text text-anchor="start" x="226.2825" y="-140" font-family="Times,serif" font-size="10.00" fill="#000000">TodoItem</text>
<polygon fill="none" stroke="#000000" points="196.5,-110 196.5,-132 295.5,-132 295.5,-110 196.5,-110"/>
<text text-anchor="start" x="201.5" y="-118" font-family="Times,serif" font-size="10.00" fill="#000000">id: NUMBER</text>
<polygon fill="none" stroke="#000000" points="196.5,-88 196.5,-110 295.5,-110 295.5,-88 196.5,-88"/>
<text text-anchor="start" x="201.5" y="-96" font-family="Times,serif" font-size="10.00" fill="#000000">content: STRING</text>
<polygon fill="none" stroke="#000000" points="196.5,-66 196.5,-88 295.5,-88 295.5,-66 196.5,-66"/>
<text text-anchor="start" x="201.152" y="-74" font-family="Times,serif" font-size="10.00" fill="#000000">complete: BOOLEAN</text>
<polygon fill="none" stroke="#000000" points="196.5,-44 196.5,-66 295.5,-66 295.5,-44 196.5,-44"/>
<text text-anchor="start" x="201.5" y="-52" font-family="Times,serif" font-size="10.00" fill="#000000">createdAt: DATE</text>
<polygon fill="none" stroke="#000000" points="196.5,-22 196.5,-44 295.5,-44 295.5,-22 196.5,-22"/>
<text text-anchor="start" x="201.5" y="-30" font-family="Times,serif" font-size="10.00" fill="#000000">updatedAt: DATE</text>
<polygon fill="none" stroke="#000000" points="196.5,0 196.5,-22 295.5,-22 295.5,0 196.5,0"/>
<text text-anchor="start" x="201.5" y="-8" font-family="Times,serif" font-size="10.00" fill="#000000">todoId: NUMBER</text>
</g>
<!-- TodoItem&#45;&gt;Todo -->
<g id="edge1" class="edge">
<title>TodoItem&#45;&gt;Todo</title>
<path fill="none" stroke="#000000" stroke-width=".75" d="M189.6741,-77C156.0066,-77 113.8322,-77 83.0961,-77"/>
<polygon fill="#000000" stroke="#000000" stroke-width=".75" points="189.8568,-77.0001 195.8569,-79.7 192.8568,-77 195.8568,-77 195.8568,-77 195.8568,-77 192.8568,-77 195.8568,-74.3 189.8568,-77.0001 189.8568,-77.0001"/>
</g>
</g>
</svg>
